IMDb :  
http://www.imdb.com/title/tt0372784/ 

Language : English
 
http://www.piczend.com/image/1358820916_vlcsnap-2013-01-21-19h13m29s70.png 
http://www.piczend.com/image/1358820917_vlcsnap-2013-01-21-19h13m36s134.png 
http://www.piczend.com/image/1358820916_vlcsnap-2013-01-21-19h13m40s173.png 
http://www.piczend.com/image/1358820917_vlcsnap-2013-01-21-19h13m56s84.png 
http://www.piczend.com/image/1358820912_vlcsnap-2013-01-21-19h14m01s126.png

Video
ID                                       : 1
Format                                   : AVC
Format/Info                              : Advanced Video Codec
Format profile                           : Main@L3.0
Format settings, CABAC                   : Yes
Format settings, ReFrames                : 1 frame
Codec ID                                 : avc1
Codec ID/Info                            : Advanced Video Coding
Duration                                 : 2h 20mn
Bit rate mode                            : Variable
Bit rate                                 : 792 Kbps
Width                                    : 720 pixels
Height                                   : 306 pixels
Display aspect ratio                     : 2.35:1
Frame rate mode                          : Variable
Frame rate                               : 23.976 fps
Minimum frame rate                       : 23.974 fps
Maximum frame rate                       : 90.000 fps
Color space                              : YUV
Chroma subsampling                       : 4:2:0
Bit depth                                : 8 bits
Scan type                                : Progressive
Bits/(Pixel*Frame)                       : 0.150
Stream size                              : 793 MiB (92%)
Writing library                          : x264 core
Encoded date                             : UTC 2013-01-21 03:29:21
Tagged date                              : UTC 2013-01-21 03:58:02
Color primaries                          : BT.601 NTSC
Transfer characteristics                 : BT.709
Matrix coefficients                      : BT.601

Audio
ID                                       : 2
Format                                   : MPEG Audio
Format version                           : Version 1
Format profile                           : Layer 3
Mode                                     : Joint stereo
Mode extension                           : MS Stereo
Codec ID                                 : 69
Duration                                 : 2h 19mn
Bit rate mode                            : Constant
Bit rate                                 : 64.0 Kbps
Channel(s)                               : 2 channels
Sampling rate                            : 48.0 KHz
Compression mode                         : Lossy
Stream size                              : 64.1 MiB (7%)
Writing library                          : LAME3.98.4
Encoded date                             : UTC 2013-01-21 03:29:21
Tagged date                              : UTC 2013-01-21 03:57:53
